<svg width="16" height="19" viewBox="0 0 16 19" fill="none" xmlns="http://www.w3.org/2000/svg">
<path d="M13.8758 2.30769H10.7027V1.73077C10.7027 0.77488 9.92785 0 8.97196 0H6.66427C5.70838 0 4.9335 0.77488 4.9335 1.73077V2.30769H1.76042C0.963872 2.30769 0.318115 2.95345 0.318115 3.75V4.90385C0.318115 5.22249 0.576396 5.48077 0.895038 5.48077H14.7412C15.0598 5.48077 15.3181 5.22249 15.3181 4.90385V3.75C15.3181 2.95345 14.6724 2.30769 13.8758 2.30769ZM6.08735 1.73077C6.08735 1.41274 6.34624 1.15385 6.66427 1.15385H8.97196C9.28999 1.15385 9.54888 1.41274 9.54888 1.73077V2.30769H6.08735V1.73077Z" fill="#596279"/>
<path d="M1.41295 6.63461C1.31 6.63461 1.22797 6.72065 1.23287 6.82348L1.70884 16.813C1.75283 17.7375 2.5122 18.4615 3.43744 18.4615H12.1987C13.124 18.4615 13.8834 17.7375 13.9273 16.813L14.4033 6.82348C14.4082 6.72065 14.3262 6.63461 14.2232 6.63461H1.41295ZM10.1258 8.07692C10.1258 7.75817 10.384 7.5 10.7027 7.5C11.0215 7.5 11.2796 7.75817 11.2796 8.07692V15.5769C11.2796 15.8957 11.0215 16.1538 10.7027 16.1538C10.384 16.1538 10.1258 15.8957 10.1258 15.5769V8.07692ZM7.24117 8.07692C7.24117 7.75817 7.49934 7.5 7.81809 7.5C8.13684 7.5 8.39501 7.75817 8.39501 8.07692V15.5769C8.39501 15.8957 8.13684 16.1538 7.81809 16.1538C7.49934 16.1538 7.24117 15.8957 7.24117 15.5769V8.07692ZM4.35655 8.07692C4.35655 7.75817 4.61473 7.5 4.93348 7.5C5.25223 7.5 5.5104 7.75817 5.5104 8.07692V15.5769C5.5104 15.8957 5.25223 16.1538 4.93348 16.1538C4.61473 16.1538 4.35655 15.8957 4.35655 15.5769V8.07692Z" fill="#596279"/>
</svg>
