<svg width="78" height="78" viewBox="0 0 78 78" fill="none" xmlns="http://www.w3.org/2000/svg">
<path d="M57.4336 4.57031H34.4297H11.5781C10.3161 4.57031 9.29297 5.59315 9.29297 6.85547V73.4297H34.4297H42.262C44.4085 76.0891 49.7236 78 52.7109 78C56.4347 78 59.7188 74.9545 59.7188 71.1445V6.85547C59.7188 5.59315 58.6956 4.57031 57.4336 4.57031Z" fill="#F0F7FF"/>
<path d="M52.7109 78C56.4347 78 59.7188 74.9545 59.7188 71.1445V6.85547C59.7188 5.59315 58.6956 4.57031 57.4336 4.57031H34.4297V73.4297H42.262C44.4085 76.0891 49.7236 78 52.7109 78Z" fill="#DFE7F4"/>
<path d="M73.4297 16.1484H71.1445H68.8594L64.2891 18.4336V23.0039L68.8594 25.2891H71.1445H73.4297L78 23.0039V18.4336L73.4297 16.1484Z" fill="#613D5C"/>
<path d="M78 23.0039V18.4336L73.4297 16.1484H71.1445V25.2891H73.4297L78 23.0039Z" fill="#4B2746"/>
<path d="M74.2152 54.9961H71.1445H67.8595L64.2891 57.2812C64.2891 57.5098 64.3348 57.784 64.4263 58.0123L68.9966 71.8756C69.2709 72.7897 70.1392 73.4297 71.1445 73.4297C72.1498 73.4297 73.0182 72.7898 73.2924 71.8756L77.8627 58.0123C77.9543 57.784 78 57.5098 78 57.2812L74.2152 54.9961Z" fill="#FFE1BA"/>
<path d="M73.2924 71.8756L77.8627 58.0123C77.9543 57.784 78 57.5098 78 57.2812L74.2152 54.9961H71.1445V73.4297C72.1498 73.4297 73.0182 72.7898 73.2924 71.8756Z" fill="#FFBFAB"/>
<path d="M25.2891 27.5742C24.7044 27.5742 24.1197 27.351 23.6735 26.9047L19.1032 22.3343C18.2106 21.4418 18.2106 19.9956 19.1032 19.103C19.9957 18.2104 21.4419 18.2104 22.3345 19.103L25.2891 22.0577L28.2438 19.103C29.1364 18.2104 30.5826 18.2104 31.4751 19.103C32.3677 19.9956 32.3677 21.4418 31.4751 22.3343L26.9048 26.9047C26.4585 27.351 25.8738 27.5742 25.2891 27.5742Z" fill="#9CDD05"/>
<path d="M25.2891 41.2852C24.7044 41.2852 24.1197 41.062 23.6735 40.6156L19.1032 36.0453C18.2106 35.1527 18.2106 33.7065 19.1032 32.8139C19.9957 31.9213 21.4419 31.9213 22.3345 32.8139L25.2891 35.7686L28.2438 32.8139C29.1364 31.9213 30.5826 31.9213 31.4751 32.8139C32.3677 33.7065 32.3677 35.1527 31.4751 36.0453L26.9048 40.6156C26.4585 41.062 25.8738 41.2852 25.2891 41.2852Z" fill="#9CDD05"/>
<path d="M25.2891 54.9961C24.7044 54.9961 24.1197 54.7729 23.6735 54.3265L19.1032 49.7562C18.2106 48.8636 18.2106 47.4174 19.1032 46.5249C19.9957 45.6323 21.4419 45.6323 22.3345 46.5249L25.2891 49.4796L28.2438 46.5249C29.1364 45.6323 30.5826 45.6323 31.4751 46.5249C32.3677 47.4174 32.3677 48.8636 31.4751 49.7562L26.9048 54.3265C26.4585 54.7729 25.8738 54.9961 25.2891 54.9961Z" fill="#9CDD05"/>
<path d="M71.1445 23.0039H64.2891V57.2812H71.1445H78V23.0039H71.1445Z" fill="#FABE2C"/>
<path d="M71.1445 23.0039H78V57.2812H71.1445V23.0039Z" fill="#FF9100"/>
<path d="M71.1445 9.29297C67.351 9.29297 64.2891 12.3549 64.2891 16.1484V18.4336H71.1445H78V16.1484C78 12.3549 74.938 9.29297 71.1445 9.29297Z" fill="#FF641A"/>
<path d="M78 16.1484C78 12.3549 74.938 9.29297 71.1445 9.29297V18.4336H78V16.1484Z" fill="#F03800"/>
<path d="M34.4297 27.5742H48.1406C49.4037 27.5742 50.4258 26.5521 50.4258 25.2891C50.4258 24.026 49.4037 23.0039 48.1406 23.0039H34.4297C33.1666 23.0039 32.1445 24.026 32.1445 25.2891C32.1445 26.5521 33.1666 27.5742 34.4297 27.5742Z" fill="#613D5C"/>
<path d="M48.1406 36.7148H34.4297C33.1666 36.7148 32.1445 37.7369 32.1445 39C32.1445 40.2631 33.1666 41.2852 34.4297 41.2852H48.1406C49.4037 41.2852 50.4258 40.2631 50.4258 39C50.4258 37.7369 49.4037 36.7148 48.1406 36.7148Z" fill="#613D5C"/>
<path d="M48.1406 50.4258H34.4297C33.1666 50.4258 32.1445 51.4479 32.1445 52.7109C32.1445 53.974 33.1666 54.9961 34.4297 54.9961H48.1406C49.4037 54.9961 50.4258 53.974 50.4258 52.7109C50.4258 51.4479 49.4037 50.4258 48.1406 50.4258Z" fill="#613D5C"/>
<path d="M50.4258 25.2891C50.4258 24.026 49.4037 23.0039 48.1406 23.0039H34.4297V27.5742H48.1406C49.4037 27.5742 50.4258 26.5521 50.4258 25.2891Z" fill="#4B2746"/>
<path d="M50.4258 39C50.4258 37.7369 49.4037 36.7148 48.1406 36.7148H34.4297V41.2852H48.1406C49.4037 41.2852 50.4258 40.2631 50.4258 39Z" fill="#4B2746"/>
<path d="M50.4258 52.7109C50.4258 51.4479 49.4037 50.4258 48.1406 50.4258H34.4297V54.9961H48.1406C49.4037 54.9961 50.4258 53.974 50.4258 52.7109Z" fill="#4B2746"/>
<path d="M43.5703 0H34.4297H25.2891C24.026 0 23.0039 1.02207 23.0039 2.28516V6.85547C23.0039 8.11855 24.026 9.14062 25.2891 9.14062H34.4297H43.5703C44.8334 9.14062 45.8555 8.11855 45.8555 6.85547V2.28516C45.8555 1.02207 44.8334 0 43.5703 0Z" fill="#FF641A"/>
<path d="M45.8555 6.85547V2.28516C45.8555 1.02207 44.8334 0 43.5703 0H34.4297V9.14062H43.5703C44.8334 9.14062 45.8555 8.11855 45.8555 6.85547Z" fill="#F03800"/>
<path d="M45.8555 71.1445C45.8555 69.8822 44.8323 68.8594 43.5703 68.8594H34.4297H2.28516C1.02314 68.8594 0 69.8822 0 71.1445V73.4297C0 75.9536 2.04613 78 4.57031 78H34.4297H52.7109C48.9174 78 45.8555 74.9377 45.8555 71.1445Z" fill="#DFE7F4"/>
<path d="M45.8555 71.1445C45.8555 69.8822 44.8323 68.8594 43.5703 68.8594H34.4297V78H52.7109C48.9174 78 45.8555 74.9377 45.8555 71.1445Z" fill="#C7CFE1"/>
</svg>
